<?xml version="1.0" encoding="UTF-8"?>
<svg id="Layer_2" xmlns="http://www.w3.org/2000/svg" version="1.1" viewBox="0 0 1080 1080">
  <!-- Generator: Adobe Illustrator 30.0.0, SVG Export Plug-In . SVG Version: 2.1.1 Build 123)  -->
  <defs>
    <style>
      .st0 {
        fill: #231f20;
      }
    </style>
  </defs>
  <path class="st0" d="M486.92,426.82h0s10.91-82.63-25.85-102.57c0,0,6.27,23.69,6.83,48.93-7.55,2.24-14.93,7.77-14.93,7.77,3.74,73.83-1.87,68.22-36.45,84.11-34.58,15.89-34.58-49.53-34.58-49.53,0,0,14.33-190.96-11.21-217.13-4.2-4.3-8.09-7.16-11.62-8.76-2.17-15.49,14.42-24.57,14.42-24.57-40.19,1.4-34.59,45.33-34.59,45.33h0c-.72,10.06.57,23.14,4.36,38.47,12.46,50.47-11.84,91.9-11.84,91.9,0,0-21.49,3.74-39.25-84.11-17.76-87.85,3.74-128.97,3.74-128.97-2.34-3.05-4.59-5.52-6.76-7.52,1.54-17.95,20.78-21.45,20.78-21.45-31.31-11.21-41.39,17.29-41.39,17.29,0,0,0,.01,0,.01-19.12,12.86-24.95,75.08-17.49,92.04,10.28,23.36,15.89,138.31,15.89,138.31-22.43-24.3-42.06-112.15-42.06-112.15-48.76-75.35-7.55-76.71-39.07-88.61h0c-13.29-15.75,6.36-35.69,6.36-35.69-40.65,7.01-29.94,49.07-29.94,49.07h0c.46,28.14,25.16,84.43,39.28,110.74,20.56,38.32,8.41,87.85,8.41,87.85-43.92-2.8-53.27-118.69-53.27-118.69-3.23-4.2-6.07-7.06-8.56-8.8-3.21-15.25,2.02-25.31,2.02-25.31-7.62,2.07-16.84,19.63-16.84,19.63v28.12c-.22,18.86,4.3,44.02,11.23,58.32,14.95,30.84,48.6,133.64,48.6,133.64l28.64-4.4h0l-28.64,4.4c.93,117.75,28.04,90.65,45.79,134.58,17.76,43.92,4.67,500.92,4.67,500.92h138.31s-23.36-435.5-23.36-478.49c0-2.08.06-4.4.16-6.92,28.06-24.37,71.48-34.38,102.64-56.63,38.23-27.31,31.08-74.07,25.54-111.13Z"/>
  <path class="st0" d="M593.08,426.82h0s-10.91-82.63,25.85-102.57c0,0-6.27,23.69-6.83,48.93,7.55,2.24,14.93,7.77,14.93,7.77-3.74,73.83,1.87,68.22,36.45,84.11,34.58,15.89,34.58-49.53,34.58-49.53,0,0-14.33-190.96,11.21-217.13,4.2-4.3,8.09-7.16,11.62-8.76,2.17-15.49-14.42-24.57-14.42-24.57,40.19,1.4,34.59,45.33,34.59,45.33h0c.72,10.06-.57,23.14-4.36,38.47-12.46,50.47,11.84,91.9,11.84,91.9,0,0,21.49,3.74,39.25-84.11,17.76-87.85-3.74-128.97-3.74-128.97,2.34-3.05,4.59-5.52,6.76-7.52-1.54-17.95-20.78-21.45-20.78-21.45,31.31-11.21,41.39,17.29,41.39,17.29,0,0,0,.01,0,.01,19.12,12.86,24.95,75.08,17.49,92.04-10.28,23.36-15.89,138.31-15.89,138.31,22.43-24.3,42.06-112.15,42.06-112.15,48.76-75.35,7.55-76.71,39.07-88.61h0c13.29-15.75-6.36-35.69-6.36-35.69,40.65,7.01,29.94,49.07,29.94,49.07h0c-.46,28.14-25.16,84.43-39.28,110.74-20.56,38.32-8.41,87.85-8.41,87.85,43.92-2.8,53.27-118.69,53.27-118.69,3.23-4.2,6.07-7.06,8.56-8.8,3.21-15.25-2.02-25.31-2.02-25.31,7.62,2.07,16.84,19.63,16.84,19.63v28.12c.22,18.86-4.3,44.02-11.23,58.32-14.95,30.84-48.6,133.64-48.6,133.64l-28.64-4.4h0l28.64,4.4c-.93,117.75-28.04,90.65-45.79,134.58-17.76,43.92-4.67,500.92-4.67,500.92h-138.31s23.36-435.5,23.36-478.49c0-2.08-.06-4.4-.16-6.92-28.06-24.37-71.48-34.38-102.64-56.63-38.23-27.31-31.08-74.07-25.54-111.13Z"/>
</svg>